<svg width="135" height="40" viewBox="0 0 135 40" fill="none" xmlns="http://www.w3.org/2000/svg">
<g clip-path="url(#clip0_47_944)">
<path d="M133.598 35.2205C133.598 35.722 133.499 36.2186 133.307 36.6819C133.115 37.1452 132.833 37.5661 132.478 37.9206C132.123 38.2751 131.702 38.5561 131.238 38.7477C130.775 38.9392 130.278 39.0376 129.776 39.037H4.71419C3.70055 39.0381 2.728 38.6366 2.01041 37.9209C1.29282 37.2052 0.888955 36.2338 0.887634 35.2205V4.78457C0.888955 3.77074 1.29266 2.79888 2.01011 2.08237C2.72755 1.36586 3.70009 0.963276 4.71419 0.963013H129.775C130.277 0.963013 130.774 1.06187 131.238 1.25393C131.702 1.44599 132.123 1.7275 132.478 2.08238C132.833 2.43726 133.114 2.85855 133.306 3.3222C133.498 3.78584 133.597 4.28276 133.597 4.78457L133.598 35.2205Z" fill="white"/>
<path d="M129.777 39.9249H4.71458C3.4659 39.9246 2.26832 39.4292 1.38462 38.5472C0.500925 37.6652 0.00329143 36.4688 0.000915527 35.2204L0.000915527 4.78554C0.00276277 3.53657 0.500068 2.33933 1.38374 1.45645C2.26741 0.573579 3.46528 0.077165 4.71458 0.0761108L129.776 0.0761108C131.025 0.077691 132.222 0.574274 133.106 1.45704C133.99 2.3398 134.487 3.53673 134.489 4.78554V35.2204C134.491 37.8153 132.373 39.9249 129.777 39.9249Z" fill="#A6A6A6"/>
<path d="M133.598 35.2205C133.598 35.722 133.499 36.2186 133.307 36.6819C133.115 37.1452 132.833 37.5661 132.478 37.9206C132.123 38.2751 131.702 38.5561 131.238 38.7477C130.775 38.9392 130.278 39.0376 129.776 39.037H4.71419C3.70055 39.0381 2.728 38.6366 2.01041 37.9209C1.29282 37.2052 0.888955 36.2338 0.887634 35.2205V4.78457C0.888955 3.77074 1.29266 2.79888 2.01011 2.08237C2.72755 1.36586 3.70009 0.963276 4.71419 0.963013H129.775C130.277 0.963013 130.774 1.06187 131.238 1.25393C131.702 1.44599 132.123 1.7275 132.478 2.08238C132.833 2.43726 133.114 2.85855 133.306 3.3222C133.498 3.78584 133.597 4.28276 133.597 4.78457L133.598 35.2205Z" fill="black"/>
<path d="M30.0306 19.7907C30.0017 16.579 32.6611 15.0165 32.7827 14.9438C31.2766 12.7485 28.9422 12.4486 28.1218 12.4246C26.1612 12.2184 24.2594 13.5975 23.2606 13.5975C22.242 13.5975 20.704 12.4446 19.0463 12.4785C16.9133 12.5113 14.9178 13.746 13.8233 15.6633C11.5647 19.5725 13.2492 25.3173 15.4132 28.4772C16.4956 30.0257 17.7605 31.7526 19.4161 31.6919C21.0359 31.6261 21.6409 30.6605 23.5955 30.6605C25.5322 30.6605 26.1004 31.6919 27.7889 31.653C29.5273 31.6261 30.6217 30.0985 31.6663 28.537C32.9172 26.7642 33.4196 25.0163 33.4395 24.9267C33.3997 24.9127 30.0645 23.6392 30.0306 19.7907ZM26.841 10.346C27.7122 9.2568 28.3082 7.77501 28.1428 6.2713C26.8819 6.3271 25.305 7.14323 24.3969 8.20849C23.5936 9.14718 22.8759 10.6858 23.0613 12.1327C24.4777 12.2383 25.9319 11.4182 26.841 10.346Z" fill="white"/>
<path d="M129.776 0.0761108H62.789L89.0267 39.9249H129.776C131.025 39.9238 132.223 39.4277 133.106 38.5453C133.99 37.6628 134.487 36.4661 134.49 35.2175V4.78554C134.488 3.53665 133.99 2.33956 133.107 1.45674C132.223 0.573927 131.025 0.0774281 129.776 0.0761108Z" fill="url(#paint0_linear_47_944)"/>
<path d="M53.4927 31.4697H51.2291L49.9891 27.5744H45.6791L44.498 31.4697H42.2941L46.5652 18.2083H49.2027L53.4927 31.4697ZM49.6153 25.9401L48.494 22.4773C48.3753 22.1236 48.1521 21.2905 47.8251 19.9791H47.7853C47.6537 20.5431 47.4434 21.3762 47.1553 22.4773L46.0529 25.9401H49.6153ZM64.455 26.5709C64.455 28.1972 64.0135 29.4827 63.1294 30.4263C62.3379 31.2664 61.3541 31.6859 60.1809 31.6859C58.9141 31.6859 58.003 31.2345 57.4498 30.3297V35.347H55.3247V25.0503C55.3247 24.0289 55.2978 22.9815 55.246 21.9073H57.1149L57.2335 23.423H57.2734C57.9821 22.281 59.0576 21.71 60.5009 21.71C61.6292 21.71 62.5712 22.1554 63.3247 23.0473C64.0773 23.9412 64.455 25.115 64.455 26.5709ZM62.2901 26.6486C62.2901 25.7179 62.0808 24.9506 61.6601 24.3457C61.2006 23.7169 60.5836 23.4021 59.8101 23.4021C59.2859 23.4021 58.8094 23.5774 58.3838 23.9232C57.9572 24.272 57.6781 24.7274 57.5475 25.2914C57.4892 25.5023 57.4561 25.7194 57.4488 25.9381V27.5335C57.4488 28.2281 57.6621 28.815 58.0887 29.2953C58.5154 29.7736 59.0696 30.0138 59.7513 30.0138C60.5517 30.0138 61.1747 29.7039 61.6203 29.089C62.0668 28.4722 62.2901 27.6591 62.2901 26.6486ZM75.4562 26.5709C75.4562 28.1972 75.0147 29.4827 74.1306 30.4263C73.3381 31.2664 72.3553 31.6859 71.1812 31.6859C69.9143 31.6859 69.0032 31.2345 68.45 30.3297V35.347H66.325V25.0503C66.325 24.0289 66.298 22.9815 66.2462 21.9073H68.1151L68.2337 23.423H68.2736C68.9813 22.281 70.0568 21.71 71.5011 21.71C72.6285 21.71 73.5704 22.1554 74.3259 23.0473C75.0775 23.9412 75.4562 25.115 75.4562 26.5709ZM73.2903 26.6486C73.2903 25.7179 73.08 24.9506 72.6593 24.3457C72.1998 23.7169 71.5848 23.4021 70.8114 23.4021C70.2871 23.4021 69.8106 23.5774 69.383 23.9232C68.9564 24.272 68.6783 24.7274 68.5477 25.2914C68.4829 25.5545 68.448 25.7687 68.448 25.9381V27.5335C68.448 28.2281 68.6623 28.815 69.087 29.2953C69.5136 29.7726 70.0678 30.0138 70.7516 30.0138C71.553 30.0138 72.1759 29.7039 72.6205 29.089C73.067 28.4722 73.2903 27.6591 73.2903 26.6486ZM87.7562 27.7498C87.7562 28.8788 87.3615 29.7966 86.5771 30.5051C85.7139 31.2783 84.5088 31.666 82.9638 31.666C81.5365 31.666 80.3922 31.3909 79.529 30.8399L80.0204 29.0691C80.9524 29.6212 81.976 29.8962 83.0904 29.8962C83.8918 29.8962 84.5148 29.7148 84.9593 29.3551C85.4049 28.9944 85.6302 28.5121 85.6302 27.9102C85.6302 27.3711 85.4438 26.9197 85.0779 26.552C84.7101 26.1853 84.1021 25.8435 83.2479 25.5296C80.9255 24.6636 79.7632 23.3971 79.7632 21.7309C79.7632 20.6428 80.1739 19.7519 80.9932 19.0554C81.8126 18.3598 82.899 18.012 84.2506 18.012C85.4577 18.012 86.4634 18.2223 87.2618 18.6418L86.7286 20.3737C85.977 19.9671 85.1288 19.7639 84.1799 19.7639C83.4303 19.7639 82.8422 19.9482 82.4216 20.3149C82.0677 20.6428 81.8883 21.0424 81.8883 21.5167C81.8883 22.0399 82.0927 22.4743 82.4993 22.8151C82.8522 23.129 83.4961 23.4708 84.4271 23.8375C85.5693 24.2979 86.4086 24.834 86.9459 25.4499C87.4871 26.0657 87.7562 26.834 87.7562 27.7498ZM94.8003 23.5017H92.4579V28.1444C92.4579 29.3252 92.8706 29.9141 93.6979 29.9141C94.0777 29.9141 94.3926 29.8823 94.6418 29.8155L94.7007 31.4288C94.282 31.5853 93.7308 31.664 93.048 31.664C92.2088 31.664 91.5529 31.4079 91.0794 30.8957C90.608 30.3835 90.3707 29.5255 90.3707 28.3178V23.4977H88.9753V21.9033H90.3707V20.1525L92.4579 19.5227V21.9033H94.8003V23.5017ZM105.348 26.6098C105.348 28.0796 104.927 29.2864 104.088 30.23C103.21 31.2016 102.042 31.6859 100.586 31.6859C99.1801 31.6859 98.0627 31.2205 97.2294 30.2908C96.3961 29.3591 95.9795 28.1852 95.9795 26.7692C95.9795 25.2874 96.4101 24.0737 97.2683 23.13C98.1285 22.1853 99.2867 21.713 100.743 21.713C102.146 21.713 103.274 22.1794 104.127 23.1101C104.942 24.0129 105.348 25.1788 105.348 26.6098ZM103.145 26.6586C103.145 25.7827 102.956 25.0313 102.576 24.4025C102.13 23.6432 101.493 23.2635 100.666 23.2635C99.815 23.2635 99.1621 23.6432 98.7176 24.4025C98.3368 25.0313 98.1474 25.7956 98.1474 26.6985C98.1474 27.5754 98.3368 28.3287 98.7176 28.9555C99.1771 29.7148 99.818 30.0945 100.648 30.0945C101.461 30.0945 102.098 29.7069 102.558 28.9366C102.949 28.2928 103.145 27.5365 103.145 26.6586ZM112.259 23.7757C112.038 23.7359 111.813 23.7162 111.589 23.7169C110.841 23.7169 110.263 23.998 109.856 24.564C109.503 25.0622 109.326 25.692 109.326 26.4523V31.4697H107.201V24.9187C107.203 23.9149 107.182 22.9112 107.139 21.9083H108.99L109.068 23.7379H109.127C109.352 23.1091 109.705 22.6019 110.189 22.2222C110.633 21.8905 111.171 21.7108 111.725 21.71C111.922 21.71 112.099 21.724 112.257 21.7489L112.259 23.7757ZM121.763 26.2361C121.768 26.559 121.742 26.8818 121.685 27.1997H115.31C115.334 28.1444 115.643 28.8678 116.235 29.3661C116.772 29.8105 117.467 30.0337 118.32 30.0337C119.264 30.0337 120.125 29.8842 120.899 29.5823L121.232 31.0561C120.327 31.4507 119.259 31.647 118.026 31.647C116.543 31.647 115.378 31.2106 114.531 30.3396C113.686 29.4677 113.262 28.2958 113.262 26.828C113.262 25.3871 113.656 24.1863 114.444 23.2287C115.27 22.2063 116.385 21.6951 117.789 21.6951C119.167 21.6951 120.211 22.2063 120.919 23.2287C121.481 24.0388 121.763 25.0433 121.763 26.2361ZM119.736 25.685C119.751 25.0542 119.612 24.5112 119.324 24.0518C118.956 23.4599 118.39 23.1649 117.631 23.1649C116.936 23.1649 116.37 23.4529 115.94 24.0308C115.586 24.4902 115.375 25.0423 115.311 25.683L119.736 25.685Z" fill="white"/>
<path d="M45.0635 13.5198C44.4725 13.5198 43.9611 13.4909 43.5355 13.4421V7.03065C44.1308 6.93872 44.7323 6.8934 45.3347 6.89512C47.7717 6.89512 48.8941 8.09391 48.8941 10.048C48.8941 12.3021 47.5684 13.5198 45.0635 13.5198ZM45.4204 7.71723C45.0915 7.71723 44.8114 7.73716 44.5791 7.78499V12.6588C44.7047 12.6788 44.9459 12.6877 45.2848 12.6877C46.8816 12.6877 47.7907 11.7789 47.7907 10.0769C47.7907 8.55927 46.9684 7.71723 45.4204 7.71723ZM52.3917 13.5686C51.0182 13.5686 50.1281 12.5432 50.1281 11.1511C50.1281 9.70025 51.0371 8.66589 52.4695 8.66589C53.8231 8.66589 54.7331 9.64246 54.7331 11.0744C54.7331 12.5432 53.7951 13.5686 52.3917 13.5686ZM52.4316 9.42921C51.677 9.42921 51.1936 10.1347 51.1936 11.1213C51.1936 12.0888 51.687 12.7944 52.4216 12.7944C53.1562 12.7944 53.6496 12.04 53.6496 11.1013C53.6496 10.1447 53.1662 9.42921 52.4316 9.42921ZM62.5656 8.76255L61.0954 13.462H60.1375L59.5285 11.4212C59.3771 10.922 59.251 10.4155 59.1507 9.90354H59.1308C59.054 10.4157 58.9085 10.9289 58.754 11.4212L58.1061 13.462H57.1383L55.7548 8.76255H56.8283L57.3605 10.9967C57.4861 11.5288 57.5918 12.0311 57.6795 12.5054H57.6994C57.7762 12.1098 57.9018 11.6155 58.0862 11.0067L58.754 8.76355H59.6052L60.2442 10.9588C60.3987 11.491 60.5243 12.0131 60.6219 12.5064H60.6498C60.7176 12.0231 60.8243 11.5099 60.9688 10.9588L61.54 8.76355L62.5656 8.76255ZM67.978 13.462H66.9334V10.7635C66.9334 9.93244 66.6144 9.5159 65.9855 9.5159C65.3665 9.5159 64.9409 10.048 64.9409 10.6669V13.462H63.8963V10.1058C63.8963 9.69029 63.8863 9.24485 63.8574 8.76156H64.7764L64.8253 9.487H64.8542C65.1353 8.98477 65.7054 8.66589 66.3443 8.66589C67.3311 8.66589 67.979 9.42024 67.979 10.6479L67.978 13.462ZM70.8586 13.462H69.813V6.60614H70.8586V13.462ZM74.6672 13.5686C73.2947 13.5686 72.4036 12.5432 72.4036 11.1511C72.4036 9.70025 73.3127 8.66589 74.744 8.66589C76.0986 8.66589 77.0076 9.64246 77.0076 11.0744C77.0086 12.5432 76.0697 13.5686 74.6672 13.5686ZM74.7061 9.42921C73.9516 9.42921 73.4681 10.1347 73.4681 11.1213C73.4681 12.0888 73.9625 12.7944 74.6952 12.7944C75.4308 12.7944 75.9232 12.04 75.9232 11.1013C75.9242 10.1447 75.4417 9.42921 74.7061 9.42921ZM81.1262 13.462L81.0505 12.9209H81.0226C80.7036 13.3564 80.2381 13.5686 79.648 13.5686C78.8058 13.5686 78.2077 12.9787 78.2077 12.1855C78.2077 11.0256 79.2135 10.4257 80.9548 10.4257V10.339C80.9548 9.72018 80.6269 9.41027 79.979 9.41027C79.5155 9.41027 79.1088 9.52686 78.751 9.75905L78.5387 9.07246C78.9732 8.80142 79.5155 8.66589 80.1524 8.66589C81.3804 8.66589 82.0004 9.31361 82.0004 10.6101V12.341C82.0004 12.8153 82.0213 13.183 82.0682 13.463L81.1262 13.462ZM80.9827 11.1213C79.8225 11.1213 79.2404 11.4023 79.2404 12.0689C79.2404 12.5622 79.5404 12.8033 79.957 12.8033C80.4883 12.8033 80.9827 12.3978 80.9827 11.8467V11.1213ZM87.0729 13.462L87.024 12.7077H86.9951C86.6951 13.2777 86.1908 13.5686 85.486 13.5686C84.3527 13.5686 83.5135 12.5721 83.5135 11.1701C83.5135 9.70025 84.3836 8.6649 85.5718 8.6649C86.2007 8.6649 86.6463 8.87715 86.8975 9.30365H86.9184V6.60614H87.964V12.1955C87.964 12.6499 87.975 13.0754 88.0029 13.462H87.0729ZM86.9184 10.6967C86.9184 10.0391 86.4828 9.47803 85.818 9.47803C85.0435 9.47803 84.57 10.1646 84.57 11.1312C84.57 12.0789 85.0614 12.7276 85.797 12.7276C86.4539 12.7276 86.9184 12.1566 86.9184 11.48V10.6967ZM94.5934 13.5686C93.2209 13.5686 92.3308 12.5432 92.3308 11.1511C92.3308 9.70025 93.2398 8.66589 94.6712 8.66589C96.0258 8.66589 96.9348 9.64246 96.9348 11.0744C96.9358 12.5432 95.9979 13.5686 94.5934 13.5686ZM94.6323 9.42921C93.8787 9.42921 93.3953 10.1347 93.3953 11.1213C93.3953 12.0888 93.8887 12.7944 94.6223 12.7944C95.3579 12.7944 95.8503 12.04 95.8503 11.1013C95.8523 10.1447 95.3689 9.42921 94.6323 9.42921ZM102.553 13.462H101.507V10.7635C101.507 9.93244 101.188 9.5159 100.559 9.5159C99.94 9.5159 99.5154 10.048 99.5154 10.6669V13.462H98.4698V10.1058C98.4698 9.69029 98.4598 9.24485 98.4309 8.76156H99.35L99.3988 9.487H99.4277C99.7078 8.98477 100.279 8.6649 100.917 8.6649C101.904 8.6649 102.553 9.41924 102.553 10.6469V13.462ZM109.581 9.5458H108.431V11.8278C108.431 12.4087 108.633 12.6987 109.039 12.6987C109.224 12.6987 109.378 12.6788 109.503 12.6499L109.532 13.4431C109.329 13.5208 109.058 13.5597 108.721 13.5597C107.898 13.5597 107.406 13.1053 107.406 11.9155V9.5458H106.72V8.76255H107.406V7.90158L108.431 7.59167V8.76156H109.581V9.5458ZM115.111 13.462H114.067V10.7834C114.067 9.9424 113.749 9.5169 113.119 9.5169C112.578 9.5169 112.074 9.8846 112.074 10.629V13.462H111.03V6.60614H112.074V9.42921H112.094C112.423 8.91701 112.9 8.6649 113.508 8.6649C114.503 8.6649 115.111 9.43818 115.111 10.6669V13.462ZM120.776 11.3634H117.641C117.661 12.2533 118.25 12.7555 119.123 12.7555C119.586 12.7555 120.013 12.6778 120.39 12.5333L120.552 13.2587C120.107 13.4521 119.584 13.5487 118.975 13.5487C117.505 13.5487 116.635 12.62 116.635 11.18C116.635 9.73912 117.526 8.65593 118.857 8.65593C120.059 8.65593 120.812 9.5458 120.812 10.8901C120.819 11.0487 120.807 11.2076 120.776 11.3634ZM119.818 10.619C119.818 9.89357 119.453 9.38138 118.785 9.38138C118.185 9.38138 117.71 9.90354 117.642 10.619H119.818Z" fill="white"/>
</g>
<defs>
<linearGradient id="paint0_linear_47_944" x1="98.6383" y1="40.0307" x2="98.6383" y2="-103.683" gradientUnits="userSpaceOnUse">
<stop stop-color="#1A1A1A" stop-opacity="0.1"/>
<stop offset="0.123" stop-color="#212121" stop-opacity="0.151"/>
<stop offset="0.308" stop-color="#353535" stop-opacity="0.227"/>
<stop offset="0.532" stop-color="#575757" stop-opacity="0.318"/>
<stop offset="0.783" stop-color="#858585" stop-opacity="0.421"/>
<stop offset="1" stop-color="#B3B3B3" stop-opacity="0.51"/>
</linearGradient>
<clipPath id="clip0_47_944">
<rect width="134.622" height="40" fill="white"/>
</clipPath>
</defs>
</svg>
