<svg width="25" height="24" viewBox="0 0 25 24" fill="none" xmlns="http://www.w3.org/2000/svg">
<path d="M1.5 20V5H3.5V15H11.5V7H19.5C20.6 7 21.5417 7.39167 22.325 8.175C23.1083 8.95833 23.5 9.9 23.5 11V20H21.5V17H3.5V20H1.5ZM7.5 14C6.66667 14 5.95833 13.7083 5.375 13.125C4.79167 12.5417 4.5 11.8333 4.5 11C4.5 10.1667 4.79167 9.45833 5.375 8.875C5.95833 8.29167 6.66667 8 7.5 8C8.33333 8 9.04167 8.29167 9.625 8.875C10.2083 9.45833 10.5 10.1667 10.5 11C10.5 11.8333 10.2083 12.5417 9.625 13.125C9.04167 13.7083 8.33333 14 7.5 14ZM13.5 15H21.5V11C21.5 10.45 21.3043 9.979 20.913 9.587C20.521 9.19567 20.05 9 19.5 9H13.5V15ZM7.5 12C7.78333 12 8.021 11.904 8.213 11.712C8.40433 11.5207 8.5 11.2833 8.5 11C8.5 10.7167 8.40433 10.479 8.213 10.287C8.021 10.0957 7.78333 10 7.5 10C7.21667 10 6.979 10.0957 6.787 10.287C6.59567 10.479 6.5 10.7167 6.5 11C6.5 11.2833 6.59567 11.5207 6.787 11.712C6.979 11.904 7.21667 12 7.5 12Z" fill="black"/>
</svg>
