<svg width="24" height="24" viewBox="0 0 24 24" fill="none" xmlns="http://www.w3.org/2000/svg">
<path d="M1 20V5H3V15H11V7H19C20.1 7 21.0417 7.39167 21.825 8.175C22.6083 8.95833 23 9.9 23 11V20H21V17H3V20H1ZM7 14C6.16667 14 5.45833 13.7083 4.875 13.125C4.29167 12.5417 4 11.8333 4 11C4 10.1667 4.29167 9.45833 4.875 8.875C5.45833 8.29167 6.16667 8 7 8C7.83333 8 8.54167 8.29167 9.125 8.875C9.70833 9.45833 10 10.1667 10 11C10 11.8333 9.70833 12.5417 9.125 13.125C8.54167 13.7083 7.83333 14 7 14ZM13 15H21V11C21 10.45 20.8043 9.979 20.413 9.587C20.021 9.19567 19.55 9 19 9H13V15ZM7 12C7.28333 12 7.521 11.904 7.713 11.712C7.90433 11.5207 8 11.2833 8 11C8 10.7167 7.90433 10.479 7.713 10.287C7.521 10.0957 7.28333 10 7 10C6.71667 10 6.479 10.0957 6.287 10.287C6.09567 10.479 6 10.7167 6 11C6 11.2833 6.09567 11.5207 6.287 11.712C6.479 11.904 6.71667 12 7 12Z" fill="#F66F4D"/>
</svg>
