<svg width="25" height="24" viewBox="0 0 25 24" fill="none" xmlns="http://www.w3.org/2000/svg">
<path d="M11.525 21V18.85C10.6417 18.65 9.87933 18.2667 9.238 17.7C8.596 17.1333 8.125 16.3333 7.825 15.3L9.675 14.55C9.925 15.35 10.296 15.9583 10.788 16.375C11.2793 16.7917 11.925 17 12.725 17C13.4083 17 13.9877 16.846 14.463 16.538C14.9377 16.2293 15.175 15.75 15.175 15.1C15.175 14.5167 14.9917 14.054 14.625 13.712C14.2583 13.3707 13.4083 12.9833 12.075 12.55C10.6417 12.1 9.65833 11.5627 9.125 10.938C8.59166 10.3127 8.325 9.55 8.325 8.65C8.325 7.56667 8.675 6.725 9.375 6.125C10.075 5.525 10.7917 5.18333 11.525 5.1V3H13.525V5.1C14.3583 5.23333 15.046 5.53733 15.588 6.012C16.1293 6.48733 16.525 7.06667 16.775 7.75L14.925 8.55C14.725 8.01667 14.4417 7.61667 14.075 7.35C13.7083 7.08333 13.2083 6.95 12.575 6.95C11.8417 6.95 11.2833 7.11267 10.9 7.438C10.5167 7.76267 10.325 8.16667 10.325 8.65C10.325 9.2 10.575 9.63333 11.075 9.95C11.575 10.2667 12.4417 10.6 13.675 10.95C14.825 11.2833 15.696 11.8123 16.288 12.537C16.8793 13.2623 17.175 14.1 17.175 15.05C17.175 16.2333 16.825 17.1333 16.125 17.75C15.425 18.3667 14.5583 18.75 13.525 18.9V21H11.525Z" fill="black"/>
</svg>
