<svg width="136" height="40" viewBox="0 0 136 40" fill="none" xmlns="http://www.w3.org/2000/svg">
<g clip-path="url(#clip0_47_955)">
<path d="M130.097 39.9191H5.60303C2.81436 39.9191 0.62326 37.728 0.62326 34.9393V5.0607C0.62326 2.27203 2.81436 0.0809326 5.60303 0.0809326H130.097C132.886 0.0809326 135.077 2.27203 135.077 5.0607V34.9393C135.077 37.728 132.886 39.9191 130.097 39.9191Z" fill="black"/>
<path d="M130.097 0.877696C132.388 0.877696 134.28 2.77001 134.28 5.0607V34.9393C134.28 37.23 132.388 39.1223 130.097 39.1223H5.60303C3.31234 39.1223 1.42002 37.23 1.42002 34.9393V5.0607C1.42002 2.77001 3.31234 0.877696 5.60303 0.877696H130.097ZM130.097 0.0809326H5.60303C2.81436 0.0809326 0.62326 2.37163 0.62326 5.0607V34.9393C0.62326 37.728 2.81436 39.9191 5.60303 39.9191H130.097C132.886 39.9191 135.077 37.728 135.077 34.9393V5.0607C135.077 2.37163 132.886 0.0809326 130.097 0.0809326Z" fill="#A6A6A6"/>
<path d="M47.8314 10.2397C47.8314 11.0364 47.6322 11.7336 47.1342 12.2316C46.5367 12.8291 45.8395 13.1279 44.9431 13.1279C44.0468 13.1279 43.3496 12.8291 42.752 12.2316C42.1545 11.634 41.8557 10.9368 41.8557 10.0405C41.8557 9.1441 42.1545 8.44693 42.752 7.84936C43.3496 7.25179 44.0468 6.953 44.9431 6.953C45.3415 6.953 45.7399 7.0526 46.1383 7.25179C46.5367 7.45098 46.8354 7.65017 47.0346 7.94896L46.5367 8.44693C46.1383 7.94896 45.6403 7.74977 44.9431 7.74977C44.3456 7.74977 43.748 7.94896 43.3496 8.44693C42.8516 8.84531 42.6524 9.44289 42.6524 10.1401C42.6524 10.8372 42.8516 11.4348 43.3496 11.8332C43.8476 12.2316 44.3456 12.5303 44.9431 12.5303C45.6403 12.5303 46.1383 12.3312 46.6363 11.8332C46.935 11.5344 47.1342 11.136 47.1342 10.638H44.9431V9.84127H47.8314V10.2397ZM52.4128 7.74977H49.7237V9.64208H52.2136V10.3392H49.7237V12.2316H52.4128V13.0283H48.927V7.0526H52.4128V7.74977ZM55.6994 13.0283H54.9027V7.74977H53.2096V7.0526H57.3926V7.74977H55.6994V13.0283ZM60.2808 13.0283V7.0526H61.0776V13.0283H60.2808ZM64.4638 13.0283H63.6671V7.74977H61.9739V7.0526H66.0574V7.74977H64.3642V13.0283H64.4638ZM73.9254 12.2316C73.3278 12.8291 72.6307 13.1279 71.7343 13.1279C70.8379 13.1279 70.1408 12.8291 69.5432 12.2316C68.9456 11.634 68.6468 10.9368 68.6468 10.0405C68.6468 9.1441 68.9456 8.44693 69.5432 7.84936C70.1408 7.25179 70.8379 6.953 71.7343 6.953C72.6307 6.953 73.3278 7.25179 73.9254 7.84936C74.523 8.44693 74.8218 9.1441 74.8218 10.0405C74.8218 10.9368 74.523 11.634 73.9254 12.2316ZM70.1408 11.7336C70.5392 12.132 71.1367 12.4307 71.7343 12.4307C72.3319 12.4307 72.9294 12.2316 73.3278 11.7336C73.7262 11.3352 74.025 10.7376 74.025 10.0405C74.025 9.34329 73.8258 8.74572 73.3278 8.34734C72.9294 7.94896 72.3319 7.65017 71.7343 7.65017C71.1367 7.65017 70.5392 7.84936 70.1408 8.34734C69.7424 8.74572 69.4436 9.34329 69.4436 10.0405C69.4436 10.7376 69.6428 11.3352 70.1408 11.7336ZM75.9173 13.0283V7.0526H76.8137L79.7019 11.7336V7.0526H80.4987V13.0283H79.7019L76.6145 8.14815V13.0283H75.9173Z" fill="white" stroke="white" stroke-width="0.199191" stroke-miterlimit="10"/>
<path d="M68.4476 21.7927C66.0573 21.7927 64.165 23.5855 64.165 26.0753C64.165 28.4656 66.0573 30.3579 68.4476 30.3579C70.8379 30.3579 72.7302 28.5652 72.7302 26.0753C72.7302 23.4859 70.8379 21.7927 68.4476 21.7927ZM68.4476 28.5652C67.1529 28.5652 66.0573 27.4697 66.0573 25.9757C66.0573 24.4818 67.1529 23.3863 68.4476 23.3863C69.7423 23.3863 70.8379 24.3822 70.8379 25.9757C70.8379 27.4697 69.7423 28.5652 68.4476 28.5652ZM59.1852 21.7927C56.7949 21.7927 54.9026 23.5855 54.9026 26.0753C54.9026 28.4656 56.7949 30.3579 59.1852 30.3579C61.5755 30.3579 63.4678 28.5652 63.4678 26.0753C63.4678 23.4859 61.5755 21.7927 59.1852 21.7927ZM59.1852 28.5652C57.8905 28.5652 56.795 27.4697 56.795 25.9757C56.795 24.4818 57.8905 23.3863 59.1852 23.3863C60.48 23.3863 61.5755 24.3822 61.5755 25.9757C61.5755 27.4697 60.48 28.5652 59.1852 28.5652ZM48.1302 23.0875V24.8802H52.4128C52.3132 25.8761 51.9148 26.6729 51.4168 27.1709C50.8192 27.7685 49.8233 28.4656 48.1302 28.4656C45.4411 28.4656 43.4492 26.3741 43.4492 23.6851C43.4492 20.996 45.5407 18.9045 48.1302 18.9045C49.5245 18.9045 50.62 19.502 51.4168 20.1992L52.7115 18.9045C51.616 17.9085 50.2217 17.1118 48.2297 17.1118C44.6443 17.1118 41.5569 20.0996 41.5569 23.6851C41.5569 27.2705 44.6443 30.2583 48.2297 30.2583C50.2217 30.2583 51.616 29.6608 52.8111 28.366C54.0063 27.1709 54.4047 25.4778 54.4047 24.183C54.4047 23.7846 54.4047 23.3863 54.3051 23.0875H48.1302ZM93.3465 24.4818C92.9481 23.4859 91.9521 21.7927 89.761 21.7927C87.5699 21.7927 85.7772 23.4859 85.7772 26.0753C85.7772 28.4656 87.5699 30.3579 89.9602 30.3579C91.8525 30.3579 93.0477 29.1628 93.4461 28.4656L92.0517 27.4697C91.5537 28.1668 90.9562 28.6648 89.9602 28.6648C88.9643 28.6648 88.3667 28.2664 87.8687 27.3701L93.5457 24.9798L93.3465 24.4818ZM87.5699 25.8761C87.5699 24.2826 88.8647 23.3863 89.761 23.3863C90.4582 23.3863 91.1554 23.7846 91.3545 24.2826L87.5699 25.8761ZM82.8889 29.9596H84.7813V17.5101H82.8889V29.9596ZM79.9011 22.6891C79.4031 22.1911 78.6063 21.6931 77.6104 21.6931C75.5189 21.6931 73.527 23.5855 73.527 25.9757C73.527 28.366 75.4193 30.1588 77.6104 30.1588C78.6063 30.1588 79.4031 29.6608 79.8015 29.1628H79.9011V29.7604C79.9011 31.3539 79.0047 32.2503 77.6104 32.2503C76.5148 32.2503 75.7181 31.4535 75.5189 30.7563L73.9254 31.4535C74.4233 32.549 75.6185 33.9434 77.71 33.9434C79.9011 33.9434 81.6938 32.6486 81.6938 29.5612V21.9919H79.9011V22.6891ZM77.71 28.5652C76.4152 28.5652 75.3197 27.4697 75.3197 25.9757C75.3197 24.4818 76.4152 23.3863 77.71 23.3863C79.0047 23.3863 80.0007 24.4818 80.0007 25.9757C80.0007 27.4697 79.0047 28.5652 77.71 28.5652ZM102.011 17.5101H97.5295V29.9596H99.4218V25.2786H102.011C104.103 25.2786 106.095 23.7846 106.095 21.3944C106.095 19.0041 104.103 17.5101 102.011 17.5101ZM102.111 23.4859H99.4218V19.2033H102.111C103.505 19.2033 104.302 20.3984 104.302 21.2948C104.202 22.3903 103.406 23.4859 102.111 23.4859ZM113.564 21.6931C112.17 21.6931 110.776 22.2907 110.278 23.5855L111.971 24.2826C112.369 23.5855 112.967 23.3863 113.664 23.3863C114.66 23.3863 115.556 23.9838 115.656 24.9798V25.0794C115.357 24.8802 114.56 24.5814 113.764 24.5814C111.971 24.5814 110.178 25.5774 110.178 27.3701C110.178 29.0632 111.672 30.1588 113.266 30.1588C114.56 30.1588 115.158 29.5612 115.656 28.9636H115.755V29.9596H117.548V25.179C117.349 22.9879 115.656 21.6931 113.564 21.6931ZM113.365 28.5652C112.768 28.5652 111.871 28.2664 111.871 27.4697C111.871 26.4737 112.967 26.1749 113.863 26.1749C114.66 26.1749 115.058 26.3741 115.556 26.5733C115.357 27.7685 114.361 28.5652 113.365 28.5652ZM123.823 21.9919L121.731 27.3701H121.632L119.44 21.9919H117.449L120.735 29.5612L118.843 33.7442H120.735L125.815 21.9919H123.823ZM107.091 29.9596H108.983V17.5101H107.091V29.9596Z" fill="white"/>
<path d="M10.983 7.55066C10.6842 7.84945 10.5846 8.34742 10.5846 8.94499V30.9556C10.5846 31.5532 10.7838 32.0511 11.0826 32.3499L11.1822 32.4495L23.532 20.0997V19.9005L10.983 7.55066Z" fill="url(#paint0_linear_47_955)"/>
<path d="M27.5155 24.2826L23.4321 20.1992V19.9004L27.5155 15.817L27.6151 15.9166L32.4953 18.7053C33.8896 19.502 33.8896 20.7968 32.4953 21.5935L27.5155 24.2826Z" fill="url(#paint1_linear_47_955)"/>
<path d="M27.6165 24.183L23.4335 20L10.984 32.4494C11.482 32.9474 12.1792 32.9474 13.0755 32.549L27.6165 24.183Z" fill="url(#paint2_linear_47_955)"/>
<path d="M27.6165 15.817L13.0755 7.5506C12.1792 7.05262 11.482 7.15222 10.984 7.6502L23.4335 20L27.6165 15.817Z" fill="url(#paint3_linear_47_955)"/>
<path opacity="0.2" d="M27.5169 24.0835L13.0755 32.2503C12.2788 32.7483 11.5816 32.6487 11.0836 32.2503L10.984 32.3499L11.0836 32.4495C11.5816 32.8479 12.2788 32.9475 13.0755 32.4495L27.5169 24.0835Z" fill="black"/>
<path opacity="0.12" d="M10.983 32.2502C10.6842 31.9514 10.5846 31.4535 10.5846 30.8559V30.9555C10.5846 31.5531 10.7838 32.051 11.0826 32.3498V32.2502H10.983ZM32.4956 21.2947L27.5158 24.0834L27.6154 24.183L32.4956 21.3943C33.1928 20.996 33.4916 20.498 33.4916 20C33.4916 20.498 33.0932 20.8964 32.4956 21.2947Z" fill="black"/>
<path opacity="0.25" d="M13.0745 7.6502L32.4956 18.7053C33.0932 19.1037 33.4916 19.502 33.4916 20C33.4916 19.502 33.1928 19.0041 32.4956 18.6057L13.0745 7.5506C11.6802 6.75384 10.5846 7.35141 10.5846 8.94494V9.04453C10.5846 7.5506 11.6802 6.85343 13.0745 7.6502Z" fill="white"/>
</g>
<defs>
<linearGradient id="paint0_linear_47_955" x1="22.3369" y1="8.75576" x2="5.62179" y2="25.4699" gradientUnits="userSpaceOnUse">
<stop stop-color="#00A0FF"/>
<stop offset="0.007" stop-color="#00A1FF"/>
<stop offset="0.26" stop-color="#00BEFF"/>
<stop offset="0.512" stop-color="#00D2FF"/>
<stop offset="0.76" stop-color="#00DFFF"/>
<stop offset="1" stop-color="#00E3FF"/>
</linearGradient>
<linearGradient id="paint1_linear_47_955" x1="34.3219" y1="20.001" x2="10.2228" y2="20.001" gradientUnits="userSpaceOnUse">
<stop stop-color="#FFE000"/>
<stop offset="0.409" stop-color="#FFBD00"/>
<stop offset="0.775" stop-color="#FFA500"/>
<stop offset="1" stop-color="#FF9C00"/>
</linearGradient>
<linearGradient id="paint2_linear_47_955" x1="25.3527" y1="22.2867" x2="2.68675" y2="44.9526" gradientUnits="userSpaceOnUse">
<stop stop-color="#FF3A44"/>
<stop offset="1" stop-color="#C31162"/>
</linearGradient>
<linearGradient id="paint3_linear_47_955" x1="7.89359" y1="0.256234" x2="18.0155" y2="10.3781" gradientUnits="userSpaceOnUse">
<stop stop-color="#32A071"/>
<stop offset="0.069" stop-color="#2DA771"/>
<stop offset="0.476" stop-color="#15CF74"/>
<stop offset="0.801" stop-color="#06E775"/>
<stop offset="1" stop-color="#00F076"/>
</linearGradient>
<clipPath id="clip0_47_955">
<rect width="134.454" height="40" fill="white" transform="translate(0.621857)"/>
</clipPath>
</defs>
</svg>
